# xmcd
#
# Track frame offsets:
#       150
#       23400
#       25728
#       62608
#       64992
#       113964
#       114879
#       167689
#       169692
#
# Disc length: 2795 seconds
#
# Revision: 1
# Processed by: cddbd v1.5.2PL0 Copyright (c) Steve Scherf et al.
# Submitted via: WhereIsIt 3.95
#
DISCID=670ae909
DTITLE=Gentle Giant - Live At WAR
DYEAR=1972
DGENRE=Progressive Rock
TTITLE0=Prologue
TTITLE1=announcement
TTITLE2=Funny Ways
TTITLE3=announcement
TTITLE4=Nothing At All (incl. 5 man drum bash)
TTITLE5=announcement
TTITLE6=Plain Truth (incl. schizoid violin solo)
TTITLE7=announcement
TTITLE8=Schooldays
EXTD=Gentle Giant - Live At WAR\nPlay time: 46:35\nCategory: rock,\nYear: 1
EXTD=972\nGenre: Progressive Rock\nLive at the War Memorial, Rochester, NY\
EXTD=n14th October 1972\nproduced by members of On-Reflection.\nNOT FOR TRA
EXTD=DE - SALE
EXTT0=
EXTT1=
EXTT2=
EXTT3=
EXTT4=
EXTT5=
EXTT6=
EXTT7=
EXTT8=
PLAYORDER=
